<svg width="1058" height="197" viewBox="0 0 1058 197" fill="none" xmlns="http://www.w3.org/2000/svg">
<path d="M169.2 193L166.27 193.645L166.788 196H169.2V193ZM212.94 193V196H216.766L215.853 192.284L212.94 193ZM166.5 3.99999L169.413 3.28414L168.852 0.999987H166.5V3.99999ZM123.3 3.99999V0.999987H121.668L120.781 2.37008L123.3 3.99999ZM0.99 193L-1.52861 191.37L-4.52482 196H0.99V193ZM47.7 193V196H49.3889L50.2649 194.556L47.7 193ZM72.27 152.5V149.5H70.5811L69.7051 150.944L72.27 152.5ZM160.29 152.5L163.22 151.855L162.702 149.5H160.29V152.5ZM92.52 119.29L89.9602 117.726L87.1708 122.29H92.52V119.29ZM137.07 46.39L140.001 45.7495L138.406 38.4507L134.51 44.8256L137.07 46.39ZM153 119.29V122.29H156.726L155.931 118.65L153 119.29ZM169.2 196H212.94V190H169.2V196ZM215.853 192.284L169.413 3.28414L163.587 4.71584L210.027 193.716L215.853 192.284ZM166.5 0.999987H123.3V6.99999H166.5V0.999987ZM120.781 2.37008L-1.52861 191.37L3.50861 194.63L125.819 5.62989L120.781 2.37008ZM0.99 196H47.7V190H0.99V196ZM50.2649 194.556L74.8349 154.056L69.7051 150.944L45.1351 191.444L50.2649 194.556ZM72.27 155.5H160.29V149.5H72.27V155.5ZM157.36 153.145L166.27 193.645L172.13 192.355L163.22 151.855L157.36 153.145ZM95.0799 120.854L139.63 47.9543L134.51 44.8256L89.9602 117.726L95.0799 120.854ZM134.139 47.0304L150.069 119.93L155.931 118.65L140.001 45.7495L134.139 47.0304ZM153 116.29H92.52V122.29H153V116.29ZM391.309 95.53L390.15 92.763L383.447 95.5708L390.178 98.3089L391.309 95.53ZM270.349 3.99999V0.999987H267.889L267.407 3.41164L270.349 3.99999ZM232.549 193L229.607 192.412L228.889 196H232.549V193ZM298.159 81.49L295.217 80.9016L294.499 84.49H298.159V81.49ZM307.069 36.94V33.94H304.609L304.127 36.3516L307.069 36.94ZM282.769 160.06L279.825 159.481L279.122 163.06H282.769V160.06ZM291.949 113.35V110.35H289.481L289.005 112.771L291.949 113.35ZM392.468 98.297C413.344 89.5515 428.059 72.3899 428.059 47.2H422.059C422.059 69.5301 409.233 84.7684 390.15 92.763L392.468 98.297ZM428.059 47.2C428.059 32.3486 421.935 20.5989 410.31 12.6908C398.847 4.89322 382.299 0.999987 361.609 0.999987V6.99999C381.688 6.99999 396.865 10.8018 406.935 17.6517C416.842 24.3911 422.059 34.2414 422.059 47.2H428.059ZM361.609 0.999987H270.349V6.99999H361.609V0.999987ZM267.407 3.41164L229.607 192.412L235.49 193.588L273.29 4.58834L267.407 3.41164ZM232.549 196H331.639V190H232.549V196ZM331.639 196C356.532 196 378.443 191.155 394.229 180.866C410.17 170.476 419.689 154.629 419.689 133.33H413.689C413.689 152.531 405.253 166.519 390.953 175.839C376.499 185.26 355.886 190 331.639 190V196ZM419.689 133.33C419.689 123.491 417.186 115.048 412.442 108.17C407.703 101.3 400.851 96.173 392.439 92.7511L390.178 98.3089C397.696 101.367 403.535 105.825 407.503 111.577C411.466 117.322 413.689 124.539 413.689 133.33H419.689ZM351.349 39.94C359.912 39.94 366.208 41.2745 370.273 43.7537C374.101 46.0885 376.159 49.551 376.159 54.76H382.159C382.159 47.5489 379.087 42.1015 373.397 38.6313C367.944 35.3054 360.335 33.94 351.349 33.94V39.94ZM376.159 54.76C376.159 62.6395 373.126 68.3815 367.694 72.2659C362.117 76.2533 353.71 78.49 342.709 78.49V84.49C354.388 84.49 364.205 82.1366 371.184 77.1466C378.306 72.0535 382.159 64.4305 382.159 54.76H376.159ZM342.709 78.49H298.159V84.49H342.709V78.49ZM301.1 82.0783L310.01 37.5283L304.127 36.3516L295.217 80.9016L301.1 82.0783ZM307.069 39.94H351.349V33.94H307.069V39.94ZM334.339 157.06H282.769V163.06H334.339V157.06ZM285.712 160.639L294.892 113.929L289.005 112.771L279.825 159.481L285.712 160.639ZM291.949 116.35H344.869V110.35H291.949V116.35ZM344.869 116.35C353.295 116.35 359.705 117.684 363.924 120.343C367.908 122.853 370.219 126.712 370.219 132.79H376.219C376.219 124.828 372.995 118.967 367.123 115.267C361.487 111.716 353.723 110.35 344.869 110.35V116.35ZM370.219 132.79C370.219 140.879 366.968 146.75 361.106 150.726C355.082 154.813 346.043 157.06 334.339 157.06V163.06C346.665 163.06 357.066 160.717 364.474 155.691C372.045 150.555 376.219 142.791 376.219 132.79H370.219ZM537.014 199.24C608.298 199.24 656.924 149.06 656.924 82.84H650.924C650.924 145.68 605.05 193.24 537.014 193.24V199.24ZM656.924 82.84C656.924 57.7962 647.999 36.4362 631.477 21.359C614.98 6.30405 591.184 -2.24 561.854 -2.24V3.76C590.034 3.76 612.272 11.9559 627.433 25.791C642.569 39.6038 650.924 59.2838 650.924 82.84H656.924ZM561.854 -2.24C490.57 -2.24 441.944 47.9405 441.944 114.16H447.944C447.944 51.3195 493.818 3.76 561.854 3.76V-2.24ZM441.944 114.16C441.944 139.204 450.869 160.564 467.39 175.641C483.887 190.696 507.684 199.24 537.014 199.24V193.24C508.834 193.24 486.595 185.044 471.435 171.209C456.299 157.396 447.944 137.716 447.944 114.16H441.944ZM540.794 155.98C524.761 155.98 512.677 151.361 504.621 143.71C496.579 136.071 492.224 125.101 492.224 111.73H486.224C486.224 126.439 491.049 139.094 500.489 148.06C509.916 157.014 523.616 161.98 540.794 161.98V155.98ZM492.224 111.73C492.224 73.0699 517.406 41.02 558.074 41.02V35.02C513.421 35.02 486.224 70.47 486.224 111.73H492.224ZM558.074 41.02C574.106 41.02 586.191 45.6387 594.247 53.2902C602.289 60.9289 606.644 71.8994 606.644 85.27H612.644C612.644 70.5606 607.819 57.9061 598.379 48.9398C588.952 39.9863 575.251 35.02 558.074 35.02V41.02ZM606.644 85.27C606.644 123.93 581.461 155.98 540.794 155.98V161.98C585.446 161.98 612.644 126.53 612.644 85.27H606.644ZM852.576 111.73L855.516 112.327L855.519 112.313L852.576 111.73ZM873.906 3.99999L876.849 4.58266L877.559 0.999987H873.906V3.99999ZM830.976 3.99999V0.999987H828.518L828.035 3.41018L830.976 3.99999ZM809.916 109.03L812.855 109.636L812.856 109.628L812.858 109.62L809.916 109.03ZM725.946 109.03L723.005 108.44L723 108.467L722.995 108.493L725.946 109.03ZM747.006 3.99999L749.948 4.58979L750.668 0.999987H747.006V3.99999ZM702.996 3.99999V0.999987H700.534L700.054 3.41453L702.996 3.99999ZM681.936 109.84L678.994 109.255L678.992 109.264L678.99 109.273L681.936 109.84ZM755.916 199.24C783.066 199.24 805.156 191.923 821.92 177.198C838.655 162.497 849.76 140.697 855.516 112.327L849.636 111.133C844.053 138.653 833.423 159.108 817.96 172.69C802.527 186.247 781.956 193.24 755.916 193.24V199.24ZM855.519 112.313L876.849 4.58266L870.963 3.41731L849.633 111.147L855.519 112.313ZM873.906 0.999987H830.976V6.99999H873.906V0.999987ZM828.035 3.41018L806.975 108.44L812.858 109.62L833.918 4.58979L828.035 3.41018ZM806.978 108.424C803.388 125.844 797.888 137.673 790.414 145.147C783.037 152.524 773.411 155.98 760.776 155.98V161.98C774.602 161.98 785.9 158.146 794.656 149.39C803.315 140.732 809.155 127.586 812.855 109.636L806.978 108.424ZM760.776 155.98C749.452 155.98 741.186 153.308 735.765 148.36C730.393 143.458 727.326 135.873 727.326 124.96H721.326C721.326 136.997 724.74 146.422 731.72 152.792C738.651 159.117 748.611 161.98 760.776 161.98V155.98ZM727.326 124.96C727.326 120.326 727.841 115.381 728.898 109.567L722.995 108.493C721.892 114.559 721.326 119.874 721.326 124.96H727.326ZM728.888 109.62L749.948 4.58979L744.065 3.41018L723.005 108.44L728.888 109.62ZM747.006 0.999987H702.996V6.99999H747.006V0.999987ZM700.054 3.41453L678.994 109.255L684.879 110.425L705.939 4.58545L700.054 3.41453ZM678.99 109.273C677.616 116.418 676.776 123.366 676.776 130.09H682.776C682.776 123.854 683.556 117.302 684.882 110.407L678.99 109.273ZM676.776 130.09C676.776 151.22 684.219 168.627 698.052 180.713C711.837 192.757 731.646 199.24 755.916 199.24V193.24C732.667 193.24 714.406 187.033 702 176.195C689.643 165.398 682.776 149.73 682.776 130.09H676.776ZM915.585 193L912.643 192.415L911.93 196H915.585V193ZM959.325 193V196H961.783L962.267 193.59L959.325 193ZM990.105 39.64V36.64H987.648L987.164 39.0497L990.105 39.64ZM1050.32 39.64V42.64H1052.76L1053.25 40.2412L1050.32 39.64ZM1057.61 3.99999L1060.54 4.60118L1061.28 0.999987H1057.61V3.99999ZM892.905 3.99999V0.999987H890.457L889.966 3.3988L892.905 3.99999ZM885.615 39.64L882.676 39.0388L881.94 42.64H885.615V39.64ZM946.095 39.64L949.038 40.2254L949.751 36.64H946.095V39.64ZM915.585 196H959.325V190H915.585V196ZM962.267 193.59L993.047 40.2303L987.164 39.0497L956.384 192.41L962.267 193.59ZM990.105 42.64H1050.32V36.64H990.105V42.64ZM1053.25 40.2412L1060.54 4.60118L1054.67 3.3988L1047.38 39.0388L1053.25 40.2412ZM1057.61 0.999987H892.905V6.99999H1057.61V0.999987ZM889.966 3.3988L882.676 39.0388L888.555 40.2412L895.845 4.60118L889.966 3.3988ZM885.615 42.64H946.095V36.64H885.615V42.64ZM943.153 39.0546L912.643 192.415L918.528 193.585L949.038 40.2254L943.153 39.0546Z" fill="#424242" fill-opacity="0.5"/>
</svg>
