<svg width="1374" height="197" viewBox="0 0 1374 197" fill="none" xmlns="http://www.w3.org/2000/svg">
<path d="M174.11 163.57L176.384 165.527L178.181 163.439L176.253 161.471L174.11 163.57ZM148.19 137.11L150.333 135.011L148.132 132.764L145.992 135.069L148.19 137.11ZM160.88 60.16L158.398 61.8456L160.244 64.5626L162.783 62.4792L160.88 60.16ZM192.47 34.24L194.373 36.5592L196.412 34.8864L195.014 32.65L192.47 34.24ZM94.19 199.24C127.2 199.24 155.682 189.586 176.384 165.527L171.836 161.613C152.578 183.994 125.98 193.24 94.19 193.24V199.24ZM176.253 161.471L150.333 135.011L146.047 139.209L171.967 165.669L176.253 161.471ZM145.992 135.069C132.545 149.55 116.344 155.98 97.97 155.98V161.98C117.936 161.98 135.755 154.91 150.388 139.151L145.992 135.069ZM97.97 155.98C81.5022 155.98 69.0738 151.411 60.7894 143.75C52.5305 136.112 48.05 125.088 48.05 111.46H42.05C42.05 126.452 47.0195 139.188 56.7156 148.155C66.3862 157.099 80.4178 161.98 97.97 161.98V155.98ZM48.05 111.46C48.05 72.11 74.4742 41.02 115.25 41.02V35.02C70.7058 35.02 42.05 69.27 42.05 111.46H48.05ZM115.25 41.02C135.18 41.02 149.308 48.4626 158.398 61.8456L163.362 58.4743C153.012 43.2374 136.9 35.02 115.25 35.02V41.02ZM162.783 62.4792L194.373 36.5592L190.567 31.9208L158.977 57.8408L162.783 62.4792ZM195.014 32.65C180.774 9.86592 152.312 -2.24 118.22 -2.24V3.76C151.088 3.76 177.166 15.4141 189.926 35.83L195.014 32.65ZM118.22 -2.24C46.4053 -2.24 -2.23 47.9313 -2.23 114.16H3.77C3.77 51.3287 49.6347 3.76 118.22 3.76V-2.24ZM-2.23 114.16C-2.23 139.233 6.98588 160.595 23.8113 175.66C40.6075 190.699 64.7296 199.24 94.19 199.24V193.24C65.8704 193.24 43.2825 185.041 27.8137 171.19C12.3741 157.365 3.77 137.687 3.77 114.16H-2.23ZM286.903 199.24C358.187 199.24 406.813 149.06 406.813 82.84H400.813C400.813 145.68 354.939 193.24 286.903 193.24V199.24ZM406.813 82.84C406.813 57.7962 397.887 36.4362 381.366 21.359C364.869 6.30405 341.073 -2.24 311.743 -2.24V3.76C339.922 3.76 362.161 11.9559 377.322 25.791C392.458 39.6038 400.813 59.2838 400.813 82.84H406.813ZM311.743 -2.24C240.458 -2.24 191.833 47.9405 191.833 114.16H197.833C197.833 51.3195 243.707 3.76 311.743 3.76V-2.24ZM191.833 114.16C191.833 139.204 200.758 160.564 217.279 175.641C233.776 190.696 257.572 199.24 286.903 199.24V193.24C258.723 193.24 236.484 185.044 221.323 171.209C206.187 157.396 197.833 137.716 197.833 114.16H191.833ZM290.683 155.98C274.65 155.98 262.566 151.361 254.51 143.71C246.467 136.071 242.113 125.101 242.113 111.73H236.113C236.113 126.439 240.938 139.094 250.378 148.06C259.804 157.014 273.505 161.98 290.683 161.98V155.98ZM242.113 111.73C242.113 73.0699 267.295 41.02 307.963 41.02V35.02C263.31 35.02 236.113 70.47 236.113 111.73H242.113ZM307.963 41.02C323.995 41.02 336.079 45.6387 344.135 53.2902C352.178 60.9289 356.533 71.8994 356.533 85.27H362.533C362.533 70.5606 357.707 57.9061 348.267 48.9398C338.841 39.9863 325.14 35.02 307.963 35.02V41.02ZM356.533 85.27C356.533 123.93 331.35 155.98 290.683 155.98V161.98C335.335 161.98 362.533 126.53 362.533 85.27H356.533ZM584.645 3.99999V0.999987H582.181L581.702 3.4168L584.645 3.99999ZM561.155 122.53L558.576 124.063L562.576 130.791L564.098 123.113L561.155 122.53ZM490.685 3.99999L493.264 2.46688L492.392 0.999987H490.685V3.99999ZM454.505 3.99999V0.999987H452.046L451.563 3.41164L454.505 3.99999ZM416.705 193L413.763 192.412L413.046 196H416.705V193ZM459.905 193V196H462.362L462.846 193.591L459.905 193ZM483.665 74.74L486.242 73.2043L482.257 66.5169L480.724 74.1491L483.665 74.74ZM554.135 193L551.558 194.536L552.43 196H554.135V193ZM590.045 193V196H592.504L592.987 193.588L590.045 193ZM627.845 3.99999L630.787 4.58834L631.504 0.999987H627.845V3.99999ZM581.702 3.4168L558.212 121.947L564.098 123.113L587.588 4.58318L581.702 3.4168ZM563.734 120.997L493.264 2.46688L488.106 5.5331L558.576 124.063L563.734 120.997ZM490.685 0.999987H454.505V6.99999H490.685V0.999987ZM451.563 3.41164L413.763 192.412L419.647 193.588L457.447 4.58834L451.563 3.41164ZM416.705 196H459.905V190H416.705V196ZM462.846 193.591L486.606 75.3309L480.724 74.1491L456.964 192.409L462.846 193.591ZM481.088 76.2757L551.558 194.536L556.712 191.464L486.242 73.2043L481.088 76.2757ZM554.135 196H590.045V190H554.135V196ZM592.987 193.588L630.787 4.58834L624.903 3.41164L587.103 192.412L592.987 193.588ZM627.845 0.999987H584.645V6.99999H627.845V0.999987ZM673.912 193L670.969 192.415L670.256 196H673.912V193ZM717.652 193V196H720.109L720.593 193.59L717.652 193ZM748.432 39.64V36.64H745.974L745.49 39.0497L748.432 39.64ZM808.642 39.64V42.64H811.09L811.581 40.2412L808.642 39.64ZM815.932 3.99999L818.871 4.60118L819.607 0.999987H815.932V3.99999ZM651.232 3.99999V0.999987H648.783L648.292 3.3988L651.232 3.99999ZM643.942 39.64L641.002 39.0388L640.266 42.64H643.942V39.64ZM704.422 39.64L707.364 40.2254L708.077 36.64H704.422V39.64ZM673.912 196H717.652V190H673.912V196ZM720.593 193.59L751.373 40.2303L745.49 39.0497L714.71 192.41L720.593 193.59ZM748.432 42.64H808.642V36.64H748.432V42.64ZM811.581 40.2412L818.871 4.60118L812.993 3.3988L805.703 39.0388L811.581 40.2412ZM815.932 0.999987H651.232V6.99999H815.932V0.999987ZM648.292 3.3988L641.002 39.0388L646.881 40.2412L654.171 4.60118L648.292 3.3988ZM643.942 42.64H704.422V36.64H643.942V42.64ZM701.479 39.0546L670.969 192.415L676.854 193.585L707.364 40.2254L701.479 39.0546ZM935.544 193L932.614 193.645L933.132 196H935.544V193ZM979.284 193V196H983.11L982.197 192.284L979.284 193ZM932.844 3.99999L935.757 3.28414L935.196 0.999987H932.844V3.99999ZM889.644 3.99999V0.999987H888.012L887.125 2.37008L889.644 3.99999ZM767.334 193L764.815 191.37L761.819 196H767.334V193ZM814.044 193V196H815.733L816.609 194.556L814.044 193ZM838.614 152.5V149.5H836.925L836.049 150.944L838.614 152.5ZM926.634 152.5L929.564 151.855L929.045 149.5H926.634V152.5ZM858.864 119.29L856.304 117.726L853.515 122.29H858.864V119.29ZM903.414 46.39L906.345 45.7495L904.75 38.4507L900.854 44.8256L903.414 46.39ZM919.344 119.29V122.29H923.07L922.275 118.65L919.344 119.29ZM935.544 196H979.284V190H935.544V196ZM982.197 192.284L935.757 3.28414L929.93 4.71584L976.37 193.716L982.197 192.284ZM932.844 0.999987H889.644V6.99999H932.844V0.999987ZM887.125 2.37008L764.815 191.37L769.852 194.63L892.162 5.62989L887.125 2.37008ZM767.334 196H814.044V190H767.334V196ZM816.609 194.556L841.179 154.056L836.049 150.944L811.479 191.444L816.609 194.556ZM838.614 155.5H926.634V149.5H838.614V155.5ZM923.704 153.145L932.614 193.645L938.474 192.355L929.564 151.855L923.704 153.145ZM861.424 120.854L905.974 47.9543L900.854 44.8256L856.304 117.726L861.424 120.854ZM900.483 47.0304L916.413 119.93L922.275 118.65L906.345 45.7495L900.483 47.0304ZM919.344 116.29H858.864V122.29H919.344V116.29ZM1175.54 163.57L1177.81 165.527L1179.61 163.439L1177.68 161.471L1175.54 163.57ZM1149.62 137.11L1151.76 135.011L1149.56 132.764L1147.42 135.069L1149.62 137.11ZM1162.31 60.16L1159.82 61.8456L1161.67 64.5626L1164.21 62.4792L1162.31 60.16ZM1193.9 34.24L1195.8 36.5592L1197.84 34.8864L1196.44 32.65L1193.9 34.24ZM1095.62 199.24C1128.63 199.24 1157.11 189.586 1177.81 165.527L1173.26 161.613C1154 183.994 1127.41 193.24 1095.62 193.24V199.24ZM1177.68 161.471L1151.76 135.011L1147.47 139.209L1173.39 165.669L1177.68 161.471ZM1147.42 135.069C1133.97 149.55 1117.77 155.98 1099.4 155.98V161.98C1119.36 161.98 1137.18 154.91 1151.81 139.151L1147.42 135.069ZM1099.4 155.98C1082.93 155.98 1070.5 151.411 1062.22 143.75C1053.96 136.112 1049.48 125.088 1049.48 111.46H1043.48C1043.48 126.452 1048.45 139.188 1058.14 148.155C1067.81 157.099 1081.84 161.98 1099.4 161.98V155.98ZM1049.48 111.46C1049.48 72.11 1075.9 41.02 1116.68 41.02V35.02C1072.13 35.02 1043.48 69.27 1043.48 111.46H1049.48ZM1116.68 41.02C1136.61 41.02 1150.73 48.4626 1159.82 61.8456L1164.79 58.4743C1154.44 43.2374 1138.33 35.02 1116.68 35.02V41.02ZM1164.21 62.4792L1195.8 36.5592L1191.99 31.9208L1160.4 57.8408L1164.21 62.4792ZM1196.44 32.65C1182.2 9.86592 1153.74 -2.24 1119.65 -2.24V3.76C1152.51 3.76 1178.59 15.4141 1191.35 35.83L1196.44 32.65ZM1119.65 -2.24C1047.83 -2.24 999.196 47.9313 999.196 114.16H1005.2C1005.2 51.3287 1051.06 3.76 1119.65 3.76V-2.24ZM999.196 114.16C999.196 139.233 1008.41 160.595 1025.24 175.66C1042.03 190.699 1066.16 199.24 1095.62 199.24V193.24C1067.3 193.24 1044.71 185.041 1029.24 171.19C1013.8 157.365 1005.2 137.687 1005.2 114.16H999.196ZM1231.58 193L1228.64 192.415L1227.92 196H1231.58V193ZM1275.32 193V196H1277.78L1278.26 193.59L1275.32 193ZM1306.1 39.64V36.64H1303.64L1303.16 39.0497L1306.1 39.64ZM1366.31 39.64V42.64H1368.76L1369.25 40.2412L1366.31 39.64ZM1373.6 3.99999L1376.54 4.60118L1377.27 0.999987H1373.6V3.99999ZM1208.9 3.99999V0.999987H1206.45L1205.96 3.3988L1208.9 3.99999ZM1201.61 39.64L1198.67 39.0388L1197.93 42.64H1201.61V39.64ZM1262.09 39.64L1265.03 40.2254L1265.74 36.64H1262.09V39.64ZM1231.58 196H1275.32V190H1231.58V196ZM1278.26 193.59L1309.04 40.2303L1303.16 39.0497L1272.38 192.41L1278.26 193.59ZM1306.1 42.64H1366.31V36.64H1306.1V42.64ZM1369.25 40.2412L1376.54 4.60118L1370.66 3.3988L1363.37 39.0388L1369.25 40.2412ZM1373.6 0.999987H1208.9V6.99999H1373.6V0.999987ZM1205.96 3.3988L1198.67 39.0388L1204.55 40.2412L1211.84 4.60118L1205.96 3.3988ZM1201.61 42.64H1262.09V36.64H1201.61V42.64ZM1259.15 39.0546L1228.64 192.415L1234.52 193.585L1265.03 40.2254L1259.15 39.0546Z" fill="#424242" fill-opacity="0.5"/>
</svg>
