<svg width="195" height="37" viewBox="0 0 195 37" fill="none" xmlns="http://www.w3.org/2000/svg">
<path d="M13.1473 11.2L14.1473 11.2087V11.2H13.1473ZM30.0973 9.6L29.5354 10.4272L30.4869 11.0735L30.9946 10.0414L30.0973 9.6ZM33.1473 3.4L34.0446 3.84141L34.4393 3.03911L33.6859 2.55748L33.1473 3.4ZM3.59727 26.45L4.18918 25.644L3.25444 24.9576L2.71296 25.9831L3.59727 26.45ZM0.297266 32.7L-0.587038 32.2331L-0.986664 32.99L-0.300558 33.5016L0.297266 32.7ZM14.3473 37.6C19.3679 37.6 23.6327 36.4043 26.6702 34.1749C29.7356 31.9251 31.4973 28.6556 31.4973 24.7H29.4973C29.4973 27.9944 28.0589 30.6749 25.4868 32.5626C22.8869 34.4707 19.0766 35.6 14.3473 35.6V37.6ZM31.4973 24.7C31.4973 21.6878 30.2551 19.5822 28.4086 18.0869C26.6162 16.6355 24.2798 15.7786 22.0928 15.1177C19.8174 14.4302 17.7884 13.971 16.2307 13.3041C14.6638 12.6334 14.1405 11.9864 14.1472 11.2087L12.1473 11.1913C12.1291 13.2886 13.762 14.4229 15.4436 15.1427C17.1343 15.8665 19.4459 16.4073 21.5143 17.0323C23.671 17.6839 25.6814 18.452 27.15 19.6412C28.5644 20.7866 29.4973 22.3372 29.4973 24.7H31.4973ZM14.1473 11.2C14.1473 10.3764 14.5798 9.5946 15.623 8.97073C16.6918 8.33155 18.3574 7.9 20.5973 7.9V5.9C18.1371 5.9 16.0777 6.36845 14.5965 7.25426C13.0897 8.1554 12.1473 9.52358 12.1473 11.2H14.1473ZM20.5973 7.9C23.885 7.9 27.0801 8.75945 29.5354 10.4272L30.6591 8.77278C27.8145 6.84055 24.2096 5.9 20.5973 5.9V7.9ZM30.9946 10.0414L34.0446 3.84141L32.25 2.95858L29.2 9.15858L30.9946 10.0414ZM33.6859 2.55748C30.4285 0.474827 25.874 -0.600001 21.0473 -0.600001V1.4C25.6205 1.4 29.7661 2.42517 32.6086 4.24252L33.6859 2.55748ZM21.0473 -0.600001C16.0505 -0.600001 11.8219 0.596271 8.81497 2.82112C5.78062 5.06627 4.04727 8.32312 4.04727 12.25H6.04727C6.04727 8.97688 7.46391 6.30873 10.0046 4.42888C12.5726 2.52873 16.344 1.4 21.0473 1.4V-0.600001ZM4.04727 12.25C4.04727 15.3463 5.27259 17.524 7.11284 19.0787C8.90222 20.5905 11.2365 21.483 13.4263 22.1615C15.71 22.8689 17.728 23.3218 19.3004 23.9796C20.8867 24.6432 21.3973 25.2699 21.3973 26H23.3973C23.3973 23.9301 21.739 22.8318 20.0723 22.1345C18.3915 21.4314 16.072 20.8873 14.0182 20.251C11.8705 19.5857 9.86731 18.7876 8.40357 17.551C6.99069 16.3573 6.04727 14.7287 6.04727 12.25H4.04727ZM21.3973 26C21.3973 26.8351 20.9672 27.5632 19.951 28.1346C18.8992 28.7258 17.277 29.1 15.1473 29.1V31.1C17.4675 31.1 19.4703 30.6992 20.9311 29.8779C22.4273 29.0368 23.3973 27.7149 23.3973 26H21.3973ZM15.1473 29.1C11.1928 29.1 7.20401 27.858 4.18918 25.644L3.00536 27.256C6.39052 29.742 10.8018 31.1 15.1473 31.1V29.1ZM2.71296 25.9831L-0.587038 32.2331L1.18157 33.1669L4.48157 26.9169L2.71296 25.9831ZM-0.300558 33.5016C2.86452 35.862 8.49148 37.6 14.3473 37.6V35.6C8.80305 35.6 3.63001 33.938 0.895089 31.8984L-0.300558 33.5016ZM52.182 37.6C65.6234 37.6 74.832 28.1132 74.832 15.6H72.832C72.832 26.9868 64.5407 35.6 52.182 35.6V37.6ZM74.832 15.6C74.832 10.8521 73.137 6.77206 69.9749 3.88634C66.8208 1.00802 62.2988 -0.600001 56.782 -0.600001V1.4C61.9153 1.4 65.9183 2.89198 68.6267 5.36366C71.327 7.82794 72.832 11.3479 72.832 15.6H74.832ZM56.782 -0.600001C43.3407 -0.600001 34.132 8.88683 34.132 21.4H36.132C36.132 10.0132 44.4234 1.4 56.782 1.4V-0.600001ZM34.132 21.4C34.132 26.1479 35.827 30.2279 38.9892 33.1137C42.1433 35.992 46.6653 37.6 52.182 37.6V35.6C47.0488 35.6 43.0458 34.108 40.3374 31.6363C37.637 29.1721 36.132 25.6521 36.132 21.4H34.132ZM52.882 28.7C49.9978 28.7 47.8797 27.8704 46.4895 26.5499C45.1037 25.2337 44.332 23.3269 44.332 20.95H42.332C42.332 23.7731 43.2604 26.2413 45.1121 28.0001C46.9593 29.7546 49.6162 30.7 52.882 30.7V28.7ZM44.332 20.95C44.332 13.9833 48.8462 8.3 56.082 8.3V6.3C47.5178 6.3 42.332 13.1167 42.332 20.95H44.332ZM56.082 8.3C58.9662 8.3 61.0843 9.12956 62.4746 10.4501C63.8604 11.7663 64.632 13.6731 64.632 16.05H66.632C66.632 13.2269 65.7037 10.7587 63.852 8.99993C62.0047 7.24544 59.3478 6.3 56.082 6.3V8.3ZM64.632 16.05C64.632 23.0167 60.1178 28.7 52.882 28.7V30.7C61.4462 30.7 66.632 23.8833 66.632 16.05H64.632ZM109.42 30.55L110.178 31.2022L110.776 30.5062L110.134 29.8502L109.42 30.55ZM104.62 25.65L105.334 24.9502L104.6 24.2012L103.887 24.9695L104.62 25.65ZM106.97 11.4L106.142 11.9619L106.757 12.8675L107.604 12.1731L106.97 11.4ZM112.82 6.6L113.454 7.37307L114.133 6.81546L113.668 6.07L112.82 6.6ZM94.6195 37.6C100.823 37.6 106.237 35.782 110.178 31.2022L108.662 29.8978C105.202 33.918 100.416 35.6 94.6195 35.6V37.6ZM110.134 29.8502L105.334 24.9502L103.905 26.3498L108.705 31.2498L110.134 29.8502ZM103.887 24.9695C101.485 27.5566 98.6043 28.7 95.3195 28.7V30.7C99.1348 30.7 102.555 29.3434 105.352 26.3305L103.887 24.9695ZM95.3195 28.7C92.3503 28.7 90.1675 27.8772 88.736 26.5533C87.313 25.2374 86.5195 23.3226 86.5195 20.9H84.5195C84.5195 23.7774 85.476 26.2626 87.3781 28.0217C89.2716 29.7728 91.9888 30.7 95.3195 30.7V28.7ZM86.5195 20.9C86.5195 13.8233 91.2476 8.3 98.5195 8.3V6.3C89.9915 6.3 84.5195 12.8767 84.5195 20.9H86.5195ZM98.5195 8.3C102.083 8.3 104.552 9.62085 106.142 11.9619L107.797 10.8381C105.787 7.87914 102.656 6.3 98.5195 6.3V8.3ZM107.604 12.1731L113.454 7.37307L112.185 5.82693L106.335 10.6269L107.604 12.1731ZM113.668 6.07C110.921 1.67531 105.473 -0.600001 99.0695 -0.600001V1.4C105.066 1.4 109.718 3.52469 111.972 7.13L113.668 6.07ZM99.0695 -0.600001C85.5313 -0.600001 76.3195 8.88375 76.3195 21.4H78.3195C78.3195 10.0162 86.6078 1.4 99.0695 1.4V-0.600001ZM76.3195 21.4C76.3195 26.1577 78.0715 30.2382 81.29 33.12C84.4987 35.9931 89.0794 37.6 94.6195 37.6V35.6C89.4597 35.6 85.3904 34.1069 82.6241 31.63C79.8676 29.1618 78.3195 25.6423 78.3195 21.4H76.3195ZM112.889 36L111.909 35.8039L111.67 37H112.889V36ZM121.039 36V37H121.859L122.02 36.1961L121.039 36ZM128.039 0.999998L129.02 1.19611L129.259 -2.38419e-06H128.039V0.999998ZM119.889 0.999998V-2.38419e-06H119.07L118.909 0.803881L119.889 0.999998ZM112.889 37H121.039V35H112.889V37ZM122.02 36.1961L129.02 1.19611L127.059 0.803881L120.059 35.8039L122.02 36.1961ZM128.039 -2.38419e-06H119.889V2H128.039V-2.38419e-06ZM118.909 0.803881L111.909 35.8039L113.87 36.1961L120.87 1.19611L118.909 0.803881ZM155.846 36L154.869 36.2149L155.042 37H155.846V36ZM163.946 36V37H165.221L164.917 35.7614L163.946 36ZM155.346 0.999998L156.317 0.761381L156.13 -2.38419e-06H155.346V0.999998ZM147.346 0.999998V-2.38419e-06H146.802L146.506 0.456697L147.346 0.999998ZM124.696 36L123.856 35.4567L122.857 37H124.696V36ZM133.346 36V37H133.909L134.201 36.5187L133.346 36ZM137.896 28.5V27.5H137.333L137.041 27.9813L137.896 28.5ZM154.196 28.5L155.172 28.2851L155 27.5H154.196V28.5ZM141.646 22.35L140.792 21.8285L139.863 23.35H141.646V22.35ZM149.896 8.85L150.873 8.63652L150.341 6.20358L149.042 8.32855L149.896 8.85ZM152.846 22.35V23.35H154.088L153.823 22.1365L152.846 22.35ZM155.846 37H163.946V35H155.846V37ZM164.917 35.7614L156.317 0.761381L154.375 1.23861L162.975 36.2386L164.917 35.7614ZM155.346 -2.38419e-06H147.346V2H155.346V-2.38419e-06ZM146.506 0.456697L123.856 35.4567L125.535 36.5433L148.185 1.5433L146.506 0.456697ZM124.696 37H133.346V35H124.696V37ZM134.201 36.5187L138.751 29.0187L137.041 27.9813L132.491 35.4813L134.201 36.5187ZM137.896 29.5H154.196V27.5H137.896V29.5ZM153.219 28.7149L154.869 36.2149L156.822 35.7851L155.172 28.2851L153.219 28.7149ZM142.499 22.8714L150.749 9.37145L149.042 8.32855L140.792 21.8285L142.499 22.8714ZM148.919 9.06348L151.869 22.5635L153.823 22.1365L150.873 8.63652L148.919 9.06348ZM152.846 21.35H141.646V23.35H152.846V21.35ZM167.577 36L166.596 35.8039L166.357 37H167.577V36ZM193.227 36V37H194.043L194.207 36.2004L193.227 36ZM194.577 29.4L195.557 29.6004L195.802 28.4H194.577V29.4ZM177.027 29.4L176.047 29.2032L175.806 30.4H177.027V29.4ZM182.727 0.999998L183.707 1.19678L183.948 -2.38419e-06H182.727V0.999998ZM174.577 0.999998V-2.38419e-06H173.757L173.596 0.803881L174.577 0.999998ZM167.577 37H193.227V35H167.577V37ZM194.207 36.2004L195.557 29.6004L193.597 29.1996L192.247 35.7996L194.207 36.2004ZM194.577 28.4H177.027V30.4H194.577V28.4ZM178.007 29.5968L183.707 1.19678L181.747 0.803218L176.047 29.2032L178.007 29.5968ZM182.727 -2.38419e-06H174.577V2H182.727V-2.38419e-06ZM173.596 0.803881L166.596 35.8039L168.558 36.1961L175.558 1.19611L173.596 0.803881Z" fill="#B8B8B8"/>
</svg>
